<?xml version="1.0" standalone="no"?>
<!DOCTYPE svg PUBLIC "-//W3C//DTD SVG 20010904//EN"
 "http://www.w3.org/TR/2001/REC-SVG-20010904/DTD/svg10.dtd">
<svg version="1.0" xmlns="http://www.w3.org/2000/svg"
 width="512.000000pt" height="512.000000pt" viewBox="0 0 512.000000 512.000000"
 preserveAspectRatio="xMidYMid meet">
<metadata>
Created by potrace 1.15, written by Peter Selinger 2001-2017
</metadata>
<g transform="translate(0.000000,512.000000) scale(0.100000,-0.100000)"
fill="#020" stroke="none">
<path d="M2949 4463 c-1 -38 -5 -123 -8 -155 -1 -20 -39 -24 -69 -9 -87 46
-465 65 -591 31 -36 -10 -68 -17 -71 -15 -6 4 -141 -37 -229 -70 -90 -33 -301
-144 -359 -189 -33 -25 -65 -46 -71 -46 -5 0 -18 -11 -29 -25 -11 -14 -25 -25
-31 -25 -31 0 -390 -388 -374 -404 4 -3 2 -6 -4 -6 -10 0 -93 -123 -93 -139 0
-5 -6 -11 -14 -14 -7 -3 -22 -28 -32 -56 -10 -28 -22 -51 -27 -51 -4 0 -6 -4
-3 -9 3 -5 0 -11 -8 -14 -7 -3 -19 -26 -27 -51 -7 -25 -17 -46 -20 -46 -4 0
-17 -31 -29 -70 -12 -38 -25 -72 -30 -75 -4 -2 -16 -36 -26 -75 -10 -38 -21
-70 -25 -70 -3 0 -4 -12 -1 -26 2 -14 0 -29 -5 -33 -11 -7 -38 -135 -53 -256
-14 -108 -14 -455 -1 -468 6 -6 11 -24 11 -39 0 -36 28 -176 40 -203 5 -11 19
-54 31 -95 12 -41 25 -77 29 -80 4 -3 22 -38 40 -79 17 -41 36 -79 42 -85 5
-6 26 -37 46 -68 55 -85 164 -207 253 -282 150 -127 425 -253 614 -282 22 -3
51 -8 65 -10 49 -10 316 -12 380 -3 139 19 235 39 285 59 11 4 40 14 65 21 25
7 50 16 55 20 6 3 21 10 35 14 49 15 223 106 318 168 103 67 196 143 302 248
254 250 466 636 534 969 8 41 20 100 27 130 7 30 13 147 15 260 2 165 -1 227
-16 315 -17 101 -60 271 -74 294 -3 5 1 25 9 45 18 43 19 114 3 168 -19 65
-92 110 -125 77 -7 -7 -23 9 -53 58 -24 37 -61 91 -83 118 -51 63 -234 245
-246 245 -5 0 -27 15 -49 33 -21 17 -65 46 -98 62 -32 17 -60 33 -62 37 -2 4
-20 12 -40 19 -57 19 -61 26 -56 125 2 49 6 94 9 101 3 9 -50 43 -69 43 -3 0
-6 -17 -7 -37z m-279 -193 c52 -6 134 -20 183 -32 l87 -22 -5 -50 c-2 -28 -7
-73 -9 -101 -10 -93 -26 -270 -26 -277 0 -5 -13 -8 -30 -8 -16 0 -30 4 -30 9
0 4 -58 11 -128 15 -96 5 -147 3 -206 -9 -43 -8 -83 -12 -87 -9 -5 3 -9 0 -9
-7 0 -6 -8 -9 -20 -6 -11 3 -20 1 -20 -5 0 -6 -7 -8 -15 -4 -8 3 -15 1 -15 -5
0 -6 -7 -9 -15 -5 -8 3 -15 1 -15 -5 0 -6 -7 -9 -15 -5 -8 3 -15 2 -15 -3 0
-4 -19 -14 -42 -21 -49 -14 -147 -62 -192 -93 -147 -102 -356 -284 -356 -309
0 -5 -22 -37 -50 -71 -27 -34 -50 -67 -50 -74 0 -7 -4 -13 -9 -13 -5 0 -19
-19 -31 -42 -12 -23 -30 -53 -41 -66 -10 -14 -19 -30 -19 -36 0 -6 -11 -33
-24 -61 -55 -114 -74 -163 -86 -220 -7 -33 -16 -69 -21 -80 -12 -28 -29 -141
-29 -197 0 -27 -4 -48 -10 -48 -15 0 -3 -223 20 -347 21 -116 65 -253 82 -253
5 0 6 -4 3 -10 -3 -5 -2 -10 3 -10 5 0 17 -20 26 -45 10 -25 21 -45 26 -45 5
0 11 -8 14 -18 4 -10 14 -27 24 -38 9 -10 29 -35 43 -54 54 -72 179 -187 191
-175 3 3 13 -4 23 -15 10 -11 24 -20 30 -20 7 0 24 -9 38 -20 15 -12 28 -20
29 -19 2 1 21 -6 42 -15 98 -41 243 -66 383 -67 80 -1 281 32 315 51 10 6 26
10 36 10 10 0 22 4 27 9 6 4 25 13 43 19 27 9 38 9 56 -4 34 -22 89 -20 127 4
64 39 119 111 123 159 1 6 47 55 104 109 261 246 400 505 468 874 16 86 19
341 5 415 -43 222 -92 347 -195 500 -53 79 -167 193 -241 241 -33 21 -62 41
-65 44 -3 4 -30 17 -60 29 -30 13 -58 29 -62 35 -5 6 -5 31 -1 56 3 25 6 52 5
60 0 8 4 53 9 100 5 47 11 114 13 148 3 35 7 66 9 68 4 5 77 -26 87 -36 3 -3
24 -14 48 -24 23 -11 42 -22 42 -26 0 -5 11 -10 23 -14 13 -3 35 -16 48 -29
13 -12 42 -36 64 -51 51 -37 173 -159 211 -211 16 -22 32 -42 35 -45 14 -11
97 -148 93 -153 -3 -3 -7 -26 -10 -52 -9 -98 40 -195 100 -195 l33 0 26 -93
c14 -51 31 -124 37 -162 6 -38 13 -72 15 -76 3 -3 8 -74 11 -155 17 -399 -101
-812 -329 -1152 -27 -41 -89 -121 -139 -178 -196 -227 -398 -376 -688 -507
-87 -39 -327 -99 -460 -114 -100 -12 -270 -7 -380 11 -26 4 -172 40 -205 50
-76 24 -251 115 -334 174 -128 91 -286 266 -346 383 -5 10 -13 19 -18 19 -4 0
-5 4 -2 10 3 5 2 10 -3 10 -11 0 -77 146 -74 163 1 4 -2 7 -7 7 -4 0 -19 39
-31 88 -13 48 -27 89 -31 92 -9 7 -29 162 -29 232 0 36 -4 58 -11 58 -9 0 -10
45 -4 168 4 92 10 171 13 177 3 5 5 23 3 38 -1 15 2 33 7 40 5 7 13 35 16 62
9 64 37 177 46 190 4 6 15 37 24 70 17 62 23 76 101 235 55 114 81 161 118
217 15 24 27 46 27 50 0 5 9 14 20 21 11 7 20 18 20 26 0 7 29 47 65 89 36 42
65 80 66 84 2 18 311 291 344 304 6 2 48 29 95 60 47 30 121 72 166 91 103 47
309 118 354 123 19 3 58 8 85 12 81 13 213 14 315 3z m186 -560 c29 -11 33
-35 18 -105 -7 -33 -13 -79 -13 -102 -1 -23 -17 -121 -36 -219 -19 -97 -35
-185 -35 -195 0 -15 -14 -18 -112 -23 -128 -5 -138 -7 -138 -16 0 -4 -19 -12
-42 -19 -24 -7 -59 -23 -78 -35 -19 -12 -50 -28 -67 -35 -18 -8 -33 -17 -33
-21 0 -4 -27 -29 -61 -55 -33 -26 -65 -59 -70 -72 -8 -22 -13 -24 -37 -17 -57
18 -115 10 -163 -20 -123 -78 -141 -226 -40 -324 l44 -43 -12 -69 c-7 -38 -10
-82 -7 -97 3 -15 8 -54 11 -86 3 -32 15 -84 27 -115 12 -31 23 -59 23 -62 2
-12 35 -69 42 -72 5 -1 18 -16 30 -31 25 -32 117 -108 136 -111 6 -1 22 -7 33
-14 56 -30 200 -44 290 -28 79 15 181 57 250 103 221 149 372 421 375 676 0
87 -21 221 -43 259 -7 13 -13 25 -14 28 -8 35 -60 108 -108 153 -27 24 -76 57
-141 94 -26 14 -24 48 20 266 19 93 32 174 29 178 -2 4 2 41 11 81 8 40 15 83
15 96 0 20 4 22 23 16 12 -4 24 -10 27 -14 3 -4 31 -18 63 -33 60 -27 135 -84
202 -153 147 -151 242 -349 285 -593 13 -70 16 -264 6 -332 -20 -135 -31 -185
-67 -293 -73 -217 -195 -413 -362 -579 -81 -82 -102 -98 -120 -92 -74 22 -88
23 -125 5 -61 -30 -142 -130 -142 -175 0 -16 -109 -51 -250 -80 -142 -29 -292
-29 -407 -1 -13 4 -31 8 -40 10 -10 2 -31 10 -48 17 -16 7 -32 13 -35 14 -34
9 -60 21 -86 41 -17 13 -34 21 -36 18 -3 -2 -11 2 -18 11 -7 8 -17 15 -22 15
-5 0 -34 20 -65 45 -30 25 -52 45 -49 45 3 0 -15 21 -40 46 -95 98 -176 254
-219 424 -21 84 -28 138 -32 265 -5 148 -4 170 22 295 16 74 32 137 36 140 4
3 10 23 14 45 9 47 124 286 166 345 16 22 29 42 29 45 0 3 7 13 15 23 9 9 34
40 57 67 54 66 148 165 156 165 4 0 24 18 46 40 21 22 45 40 52 40 7 0 19 9
27 20 7 11 40 34 73 51 32 17 61 35 64 39 16 23 264 108 351 120 70 9 312 2
345 -10z m-86 -725 c0 -14 -44 -207 -60 -265 -10 -36 -22 -87 -28 -115 -17
-83 -42 -179 -52 -200 -22 -46 -17 -59 22 -61 41 -3 40 -5 70 106 34 126 117
487 118 513 0 11 54 -1 58 -13 2 -5 9 -10 16 -10 7 0 24 -9 37 -21 13 -11 29
-24 34 -27 27 -18 108 -142 121 -187 36 -116 43 -246 20 -350 -20 -92 -78
-217 -136 -295 -152 -205 -371 -307 -584 -274 -67 11 -89 20 -145 58 -80 54
-164 152 -166 191 -1 6 -10 35 -22 65 -22 58 -29 186 -15 264 6 36 11 41 52
54 52 17 110 57 110 76 0 8 6 16 13 19 22 8 38 105 26 152 -23 90 -23 88 33
146 29 31 76 68 103 84 28 16 52 32 55 37 9 12 77 38 100 38 11 0 20 5 20 10
0 6 40 10 100 10 55 0 100 -2 100 -5z"/>
</g>
</svg>
